<?xml version="1.0" encoding="utf-8" standalone="no"?>
<!DOCTYPE svg PUBLIC "-//W3C//DTD SVG 1.1//EN"
  "http://www.w3.org/Graphics/SVG/1.1/DTD/svg11.dtd">
<svg xmlns:xlink="http://www.w3.org/1999/xlink" width="691.2pt" height="403.2pt" viewBox="0 0 691.2 403.2" xmlns="http://www.w3.org/2000/svg" version="1.1">
 <metadata>
  <rdf:RDF xmlns:dc="http://purl.org/dc/elements/1.1/" xmlns:cc="http://creativecommons.org/ns#" xmlns:rdf="http://www.w3.org/1999/02/22-rdf-syntax-ns#">
   <cc:Work>
    <dc:type rdf:resource="http://purl.org/dc/dcmitype/StillImage"/>
    <dc:date>2022-06-11T20:38:15.228633</dc:date>
    <dc:format>image/svg+xml</dc:format>
    <dc:creator>
     <cc:Agent>
      <dc:title>Matplotlib v3.5.1, https://matplotlib.org/</dc:title>
     </cc:Agent>
    </dc:creator>
   </cc:Work>
  </rdf:RDF>
 </metadata>
 <defs>
  <style type="text/css">*{stroke-linejoin: round; stroke-linecap: butt}</style>
 </defs>
 <g id="figure_1">
  <g id="patch_1">
   <path d="M 0 403.2 
L 691.2 403.2 
L 691.2 0 
L 0 0 
L 0 403.2 
z
" style="fill: none"/>
  </g>
  <g id="axes_1">
   <g id="patch_2">
    <path d="M 83.874634 354.0039 
L 684 354.0039 
L 684 30.496254 
L 83.874634 30.496254 
z
" style="fill: #ffffff"/>
   </g>
   <g id="PathCollection_1">
    <defs>
     <path id="mad12776e33" d="M 0 3 
C 0.795609 3 1.55874 2.683901 2.12132 2.12132 
C 2.683901 1.55874 3 0.795609 3 0 
C 3 -0.795609 2.683901 -1.55874 2.12132 -2.12132 
C 1.55874 -2.683901 0.795609 -3 0 -3 
C -0.795609 -3 -1.55874 -2.683901 -2.12132 -2.12132 
C -2.683901 -1.55874 -3 -0.795609 -3 0 
C -3 0.795609 -2.683901 1.55874 -2.12132 2.12132 
C -1.55874 2.683901 -0.795609 3 0 3 
z
" style="stroke: #1f77b4"/>
    </defs>
    <g clip-path="url(#p425959189e)">
     <use xlink:href="#mad12776e33" x="111.15306" y="49.467558" style="fill: #1f77b4; stroke: #1f77b4"/>
     <use xlink:href="#mad12776e33" x="120.096806" y="47.760994" style="fill: #1f77b4; stroke: #1f77b4"/>
     <use xlink:href="#mad12776e33" x="129.040552" y="102.029751" style="fill: #1f77b4; stroke: #1f77b4"/>
     <use xlink:href="#mad12776e33" x="137.984298" y="74.724716" style="fill: #1f77b4; stroke: #1f77b4"/>
     <use xlink:href="#mad12776e33" x="146.928044" y="70.287648" style="fill: #1f77b4; stroke: #1f77b4"/>
     <use xlink:href="#mad12776e33" x="155.87179" y="98.616622" style="fill: #1f77b4; stroke: #1f77b4"/>
     <use xlink:href="#mad12776e33" x="164.815536" y="103.906973" style="fill: #1f77b4; stroke: #1f77b4"/>
     <use xlink:href="#mad12776e33" x="173.759283" y="119.266055" style="fill: #1f77b4; stroke: #1f77b4"/>
     <use xlink:href="#mad12776e33" x="182.703029" y="138.208923" style="fill: #1f77b4; stroke: #1f77b4"/>
     <use xlink:href="#mad12776e33" x="191.646775" y="112.26914" style="fill: #1f77b4; stroke: #1f77b4"/>
     <use xlink:href="#mad12776e33" x="200.590521" y="125.921657" style="fill: #1f77b4; stroke: #1f77b4"/>
     <use xlink:href="#mad12776e33" x="209.534267" y="119.266055" style="fill: #1f77b4; stroke: #1f77b4"/>
     <use xlink:href="#mad12776e33" x="218.478013" y="100.835156" style="fill: #1f77b4; stroke: #1f77b4"/>
     <use xlink:href="#mad12776e33" x="227.421759" y="98.275309" style="fill: #1f77b4; stroke: #1f77b4"/>
     <use xlink:href="#mad12776e33" x="236.365506" y="94.179554" style="fill: #1f77b4; stroke: #1f77b4"/>
     <use xlink:href="#mad12776e33" x="245.309252" y="116.535551" style="fill: #1f77b4; stroke: #1f77b4"/>
     <use xlink:href="#mad12776e33" x="254.252998" y="135.990389" style="fill: #1f77b4; stroke: #1f77b4"/>
     <use xlink:href="#mad12776e33" x="263.196744" y="80.868349" style="fill: #1f77b4; stroke: #1f77b4"/>
     <use xlink:href="#mad12776e33" x="272.14049" y="100.493843" style="fill: #1f77b4; stroke: #1f77b4"/>
     <use xlink:href="#mad12776e33" x="281.084236" y="99.299248" style="fill: #1f77b4; stroke: #1f77b4"/>
     <use xlink:href="#mad12776e33" x="290.027982" y="45.201147" style="fill: #1f77b4; stroke: #1f77b4"/>
     <use xlink:href="#mad12776e33" x="298.971729" y="102.712377" style="fill: #1f77b4; stroke: #1f77b4"/>
     <use xlink:href="#mad12776e33" x="307.915475" y="81.209662" style="fill: #1f77b4; stroke: #1f77b4"/>
     <use xlink:href="#mad12776e33" x="316.859221" y="109.36798" style="fill: #1f77b4; stroke: #1f77b4"/>
     <use xlink:href="#mad12776e33" x="325.802967" y="79.161784" style="fill: #1f77b4; stroke: #1f77b4"/>
     <use xlink:href="#mad12776e33" x="334.746713" y="108.514697" style="fill: #1f77b4; stroke: #1f77b4"/>
     <use xlink:href="#mad12776e33" x="343.690459" y="80.527036" style="fill: #1f77b4; stroke: #1f77b4"/>
     <use xlink:href="#mad12776e33" x="352.634205" y="95.374149" style="fill: #1f77b4; stroke: #1f77b4"/>
     <use xlink:href="#mad12776e33" x="361.577952" y="114.146361" style="fill: #1f77b4; stroke: #1f77b4"/>
     <use xlink:href="#mad12776e33" x="370.521698" y="130.870695" style="fill: #1f77b4; stroke: #1f77b4"/>
     <use xlink:href="#mad12776e33" x="379.465444" y="108.514697" style="fill: #1f77b4; stroke: #1f77b4"/>
     <use xlink:href="#mad12776e33" x="388.40919" y="62.608107" style="fill: #1f77b4; stroke: #1f77b4"/>
     <use xlink:href="#mad12776e33" x="397.352936" y="58.171038" style="fill: #1f77b4; stroke: #1f77b4"/>
     <use xlink:href="#mad12776e33" x="406.296682" y="65.679923" style="fill: #1f77b4; stroke: #1f77b4"/>
     <use xlink:href="#mad12776e33" x="415.240428" y="72.847495" style="fill: #1f77b4; stroke: #1f77b4"/>
     <use xlink:href="#mad12776e33" x="424.184175" y="142.304679" style="fill: #1f77b4; stroke: #1f77b4"/>
     <use xlink:href="#mad12776e33" x="433.127921" y="131.212008" style="fill: #1f77b4; stroke: #1f77b4"/>
     <use xlink:href="#mad12776e33" x="442.071667" y="138.038267" style="fill: #1f77b4; stroke: #1f77b4"/>
     <use xlink:href="#mad12776e33" x="451.015413" y="143.499274" style="fill: #1f77b4; stroke: #1f77b4"/>
     <use xlink:href="#mad12776e33" x="459.959159" y="147.424373" style="fill: #1f77b4; stroke: #1f77b4"/>
     <use xlink:href="#mad12776e33" x="468.902905" y="190.429803" style="fill: #1f77b4; stroke: #1f77b4"/>
     <use xlink:href="#mad12776e33" x="477.846651" y="169.439057" style="fill: #1f77b4; stroke: #1f77b4"/>
     <use xlink:href="#mad12776e33" x="486.790398" y="169.951027" style="fill: #1f77b4; stroke: #1f77b4"/>
     <use xlink:href="#mad12776e33" x="495.734144" y="209.543328" style="fill: #1f77b4; stroke: #1f77b4"/>
     <use xlink:href="#mad12776e33" x="504.67789" y="208.690046" style="fill: #1f77b4; stroke: #1f77b4"/>
     <use xlink:href="#mad12776e33" x="513.621636" y="235.141799" style="fill: #1f77b4; stroke: #1f77b4"/>
     <use xlink:href="#mad12776e33" x="522.565382" y="231.387356" style="fill: #1f77b4; stroke: #1f77b4"/>
     <use xlink:href="#mad12776e33" x="531.509128" y="222.683876" style="fill: #1f77b4; stroke: #1f77b4"/>
     <use xlink:href="#mad12776e33" x="540.452874" y="222.51322" style="fill: #1f77b4; stroke: #1f77b4"/>
     <use xlink:href="#mad12776e33" x="549.396621" y="220.465342" style="fill: #1f77b4; stroke: #1f77b4"/>
     <use xlink:href="#mad12776e33" x="558.340367" y="232.411295" style="fill: #1f77b4; stroke: #1f77b4"/>
     <use xlink:href="#mad12776e33" x="567.284113" y="226.267662" style="fill: #1f77b4; stroke: #1f77b4"/>
     <use xlink:href="#mad12776e33" x="576.227859" y="268.761123" style="fill: #1f77b4; stroke: #1f77b4"/>
     <use xlink:href="#mad12776e33" x="585.171605" y="231.046043" style="fill: #1f77b4; stroke: #1f77b4"/>
     <use xlink:href="#mad12776e33" x="594.115351" y="254.596636" style="fill: #1f77b4; stroke: #1f77b4"/>
     <use xlink:href="#mad12776e33" x="603.059097" y="261.081582" style="fill: #1f77b4; stroke: #1f77b4"/>
     <use xlink:href="#mad12776e33" x="612.002844" y="246.405126" style="fill: #1f77b4; stroke: #1f77b4"/>
     <use xlink:href="#mad12776e33" x="620.94659" y="276.099352" style="fill: #1f77b4; stroke: #1f77b4"/>
     <use xlink:href="#mad12776e33" x="629.890336" y="275.416726" style="fill: #1f77b4; stroke: #1f77b4"/>
     <use xlink:href="#mad12776e33" x="638.834082" y="275.928695" style="fill: #1f77b4; stroke: #1f77b4"/>
     <use xlink:href="#mad12776e33" x="647.777828" y="266.201276" style="fill: #1f77b4; stroke: #1f77b4"/>
     <use xlink:href="#mad12776e33" x="656.721574" y="246.746439" style="fill: #1f77b4; stroke: #1f77b4"/>
    </g>
   </g>
   <g id="PathCollection_2">
    <defs>
     <path id="m99b4ef9350" d="M 0 3 
C 0.795609 3 1.55874 2.683901 2.12132 2.12132 
C 2.683901 1.55874 3 0.795609 3 0 
C 3 -0.795609 2.683901 -1.55874 2.12132 -2.12132 
C 1.55874 -2.683901 0.795609 -3 0 -3 
C -0.795609 -3 -1.55874 -2.683901 -2.12132 -2.12132 
C -2.683901 -1.55874 -3 -0.795609 -3 0 
C -3 0.795609 -2.683901 1.55874 -2.12132 2.12132 
C -1.55874 2.683901 -0.795609 3 0 3 
z
" style="stroke: #ff7f0e"/>
    </defs>
    <g clip-path="url(#p425959189e)">
     <use xlink:href="#m99b4ef9350" x="477.846651" y="187.993911" style="fill: #ff7f0e; stroke: #ff7f0e"/>
     <use xlink:href="#m99b4ef9350" x="486.790398" y="201.04073" style="fill: #ff7f0e; stroke: #ff7f0e"/>
     <use xlink:href="#m99b4ef9350" x="495.734144" y="213.155847" style="fill: #ff7f0e; stroke: #ff7f0e"/>
     <use xlink:href="#m99b4ef9350" x="504.67789" y="224.428894" style="fill: #ff7f0e; stroke: #ff7f0e"/>
     <use xlink:href="#m99b4ef9350" x="513.621636" y="234.939315" style="fill: #ff7f0e; stroke: #ff7f0e"/>
     <use xlink:href="#m99b4ef9350" x="522.565382" y="244.75762" style="fill: #ff7f0e; stroke: #ff7f0e"/>
     <use xlink:href="#m99b4ef9350" x="531.509128" y="253.946484" style="fill: #ff7f0e; stroke: #ff7f0e"/>
     <use xlink:href="#m99b4ef9350" x="540.452874" y="262.561701" style="fill: #ff7f0e; stroke: #ff7f0e"/>
     <use xlink:href="#m99b4ef9350" x="549.396621" y="270.65302" style="fill: #ff7f0e; stroke: #ff7f0e"/>
     <use xlink:href="#m99b4ef9350" x="558.340367" y="278.264869" style="fill: #ff7f0e; stroke: #ff7f0e"/>
     <use xlink:href="#m99b4ef9350" x="567.284113" y="285.436994" style="fill: #ff7f0e; stroke: #ff7f0e"/>
     <use xlink:href="#m99b4ef9350" x="576.227859" y="292.205014" style="fill: #ff7f0e; stroke: #ff7f0e"/>
     <use xlink:href="#m99b4ef9350" x="585.171605" y="298.600905" style="fill: #ff7f0e; stroke: #ff7f0e"/>
     <use xlink:href="#m99b4ef9350" x="594.115351" y="304.653425" style="fill: #ff7f0e; stroke: #ff7f0e"/>
     <use xlink:href="#m99b4ef9350" x="603.059097" y="310.388488" style="fill: #ff7f0e; stroke: #ff7f0e"/>
     <use xlink:href="#m99b4ef9350" x="612.002844" y="315.829484" style="fill: #ff7f0e; stroke: #ff7f0e"/>
     <use xlink:href="#m99b4ef9350" x="620.94659" y="320.997574" style="fill: #ff7f0e; stroke: #ff7f0e"/>
     <use xlink:href="#m99b4ef9350" x="629.890336" y="325.91193" style="fill: #ff7f0e; stroke: #ff7f0e"/>
     <use xlink:href="#m99b4ef9350" x="638.834082" y="330.589962" style="fill: #ff7f0e; stroke: #ff7f0e"/>
     <use xlink:href="#m99b4ef9350" x="647.777828" y="335.047509" style="fill: #ff7f0e; stroke: #ff7f0e"/>
     <use xlink:href="#m99b4ef9350" x="656.721574" y="339.299007" style="fill: #ff7f0e; stroke: #ff7f0e"/>
    </g>
   </g>
   <g id="PathCollection_3">
    <defs>
     <path id="m10ce68aa14" d="M 0 -3 
L -0.673542 -0.927051 
L -2.85317 -0.927051 
L -1.089814 0.354102 
L -1.763356 2.427051 
L -0 1.145898 
L 1.763356 2.427051 
L 1.089814 0.354102 
L 2.85317 -0.927051 
L 0.673542 -0.927051 
z
" style="stroke: #2ca02c"/>
    </defs>
    <g clip-path="url(#p425959189e)">
     <use xlink:href="#m10ce68aa14" x="477.846651" y="184.276047" style="fill: #2ca02c; stroke: #2ca02c"/>
     <use xlink:href="#m10ce68aa14" x="486.790398" y="192.833281" style="fill: #2ca02c; stroke: #2ca02c"/>
     <use xlink:href="#m10ce68aa14" x="495.734144" y="201.133279" style="fill: #2ca02c; stroke: #2ca02c"/>
     <use xlink:href="#m10ce68aa14" x="504.67789" y="209.183773" style="fill: #2ca02c; stroke: #2ca02c"/>
     <use xlink:href="#m10ce68aa14" x="513.621636" y="216.992263" style="fill: #2ca02c; stroke: #2ca02c"/>
     <use xlink:href="#m10ce68aa14" x="522.565382" y="224.566025" style="fill: #2ca02c; stroke: #2ca02c"/>
     <use xlink:href="#m10ce68aa14" x="531.509128" y="231.912114" style="fill: #2ca02c; stroke: #2ca02c"/>
     <use xlink:href="#m10ce68aa14" x="540.452874" y="239.037374" style="fill: #2ca02c; stroke: #2ca02c"/>
     <use xlink:href="#m10ce68aa14" x="549.396621" y="245.948444" style="fill: #2ca02c; stroke: #2ca02c"/>
     <use xlink:href="#m10ce68aa14" x="558.340367" y="252.651762" style="fill: #2ca02c; stroke: #2ca02c"/>
     <use xlink:href="#m10ce68aa14" x="567.284113" y="259.153574" style="fill: #2ca02c; stroke: #2ca02c"/>
     <use xlink:href="#m10ce68aa14" x="576.227859" y="265.459937" style="fill: #2ca02c; stroke: #2ca02c"/>
     <use xlink:href="#m10ce68aa14" x="585.171605" y="271.576726" style="fill: #2ca02c; stroke: #2ca02c"/>
     <use xlink:href="#m10ce68aa14" x="594.115351" y="277.509641" style="fill: #2ca02c; stroke: #2ca02c"/>
     <use xlink:href="#m10ce68aa14" x="603.059097" y="283.264207" style="fill: #2ca02c; stroke: #2ca02c"/>
     <use xlink:href="#m10ce68aa14" x="612.002844" y="288.845787" style="fill: #2ca02c; stroke: #2ca02c"/>
     <use xlink:href="#m10ce68aa14" x="620.94659" y="294.259581" style="fill: #2ca02c; stroke: #2ca02c"/>
     <use xlink:href="#m10ce68aa14" x="629.890336" y="299.510633" style="fill: #2ca02c; stroke: #2ca02c"/>
     <use xlink:href="#m10ce68aa14" x="638.834082" y="304.603834" style="fill: #2ca02c; stroke: #2ca02c"/>
     <use xlink:href="#m10ce68aa14" x="647.777828" y="309.54393" style="fill: #2ca02c; stroke: #2ca02c"/>
     <use xlink:href="#m10ce68aa14" x="656.721574" y="314.335523" style="fill: #2ca02c; stroke: #2ca02c"/>
    </g>
   </g>
   <g id="matplotlib.axis_1">
    <g id="xtick_1">
     <g id="line2d_1">
      <defs>
       <path id="mf56f95f9bf" d="M 0 0 
L 0 3.5 
" style="stroke: #000000; stroke-width: 0.8"/>
      </defs>
      <g>
       <use xlink:href="#mf56f95f9bf" x="129.040552" y="354.0039" style="stroke: #000000; stroke-width: 0.8"/>
      </g>
     </g>
     <g id="text_1">
      <!-- $\mathdefault{1960}$ -->
      <g transform="translate(114.408076 371.381625)scale(0.15 -0.15)">
       <defs>
        <path id="CMR17-31" d="M 1702 4058 
C 1702 4192 1696 4192 1606 4192 
C 1357 3916 979 3827 621 3827 
C 602 3827 570 3827 563 3808 
C 557 3795 557 3782 557 3648 
C 755 3648 1088 3686 1344 3839 
L 1344 461 
C 1344 236 1331 160 781 160 
L 589 160 
L 589 0 
C 896 0 1216 0 1523 0 
C 1830 0 2150 0 2458 0 
L 2458 160 
L 2266 160 
C 1715 160 1702 230 1702 458 
L 1702 4058 
z
" transform="scale(0.015625)"/>
        <path id="CMR17-39" d="M 2253 1864 
C 2253 464 1670 31 1190 31 
C 1043 31 685 31 538 294 
C 704 268 826 357 826 518 
C 826 692 685 749 595 749 
C 538 749 365 723 365 506 
C 365 71 742 -128 1203 -128 
C 1939 -128 2688 674 2688 2073 
C 2688 3817 1971 4179 1485 4179 
C 851 4179 243 3628 243 2778 
C 243 1991 762 1408 1414 1408 
C 1952 1408 2189 1903 2253 2112 
L 2253 1864 
z
M 1427 1510 
C 1254 1510 1011 1542 813 1922 
C 678 2169 678 2461 678 2771 
C 678 3146 678 3405 858 3684 
C 947 3817 1114 4032 1485 4032 
C 2240 4032 2240 2885 2240 2632 
C 2240 2182 2035 1510 1427 1510 
z
" transform="scale(0.015625)"/>
        <path id="CMR17-36" d="M 678 2176 
C 678 3690 1395 4032 1811 4032 
C 1946 4032 2272 4009 2400 3776 
C 2298 3776 2106 3776 2106 3553 
C 2106 3381 2246 3323 2336 3323 
C 2394 3323 2566 3348 2566 3560 
C 2566 3954 2246 4179 1805 4179 
C 1043 4179 243 3390 243 1984 
C 243 253 966 -128 1478 -128 
C 2099 -128 2688 427 2688 1283 
C 2688 2081 2170 2662 1517 2662 
C 1126 2662 838 2407 678 1960 
L 678 2176 
z
M 1478 25 
C 691 25 691 1200 691 1436 
C 691 1896 909 2560 1504 2560 
C 1613 2560 1926 2560 2138 2120 
C 2253 1870 2253 1609 2253 1289 
C 2253 944 2253 690 2118 434 
C 1978 171 1773 25 1478 25 
z
" transform="scale(0.015625)"/>
        <path id="CMR17-30" d="M 2688 2025 
C 2688 2416 2682 3080 2413 3591 
C 2176 4039 1798 4198 1466 4198 
C 1158 4198 768 4058 525 3597 
C 269 3118 243 2524 243 2025 
C 243 1661 250 1106 448 619 
C 723 -39 1216 -128 1466 -128 
C 1760 -128 2208 -7 2470 600 
C 2662 1042 2688 1559 2688 2025 
z
M 1466 -26 
C 1056 -26 813 325 723 812 
C 653 1188 653 1738 653 2096 
C 653 2588 653 2997 736 3387 
C 858 3929 1216 4096 1466 4096 
C 1728 4096 2067 3923 2189 3400 
C 2272 3036 2278 2607 2278 2096 
C 2278 1680 2278 1169 2202 792 
C 2067 95 1690 -26 1466 -26 
z
" transform="scale(0.015625)"/>
       </defs>
       <use xlink:href="#CMR17-31" transform="scale(0.996264)"/>
       <use xlink:href="#CMR17-39" transform="translate(45.690477 0)scale(0.996264)"/>
       <use xlink:href="#CMR17-36" transform="translate(91.380954 0)scale(0.996264)"/>
       <use xlink:href="#CMR17-30" transform="translate(137.071431 0)scale(0.996264)"/>
      </g>
     </g>
    </g>
    <g id="xtick_2">
     <g id="line2d_2">
      <g>
       <use xlink:href="#mf56f95f9bf" x="218.478013" y="354.0039" style="stroke: #000000; stroke-width: 0.8"/>
      </g>
     </g>
     <g id="text_2">
      <!-- $\mathdefault{1970}$ -->
      <g transform="translate(203.845538 371.381625)scale(0.15 -0.15)">
       <defs>
        <path id="CMR17-37" d="M 2886 3941 
L 2886 4081 
L 1382 4081 
C 634 4081 621 4165 595 4288 
L 480 4288 
L 294 3094 
L 410 3094 
C 429 3215 474 3540 550 3661 
C 589 3712 1062 3712 1171 3712 
L 2579 3712 
L 1869 2661 
C 1395 1954 1069 999 1069 165 
C 1069 89 1069 -128 1299 -128 
C 1530 -128 1530 89 1530 171 
L 1530 465 
C 1530 1508 1709 2196 2003 2636 
L 2886 3941 
z
" transform="scale(0.015625)"/>
       </defs>
       <use xlink:href="#CMR17-31" transform="scale(0.996264)"/>
       <use xlink:href="#CMR17-39" transform="translate(45.690477 0)scale(0.996264)"/>
       <use xlink:href="#CMR17-37" transform="translate(91.380954 0)scale(0.996264)"/>
       <use xlink:href="#CMR17-30" transform="translate(137.071431 0)scale(0.996264)"/>
      </g>
     </g>
    </g>
    <g id="xtick_3">
     <g id="line2d_3">
      <g>
       <use xlink:href="#mf56f95f9bf" x="307.915475" y="354.0039" style="stroke: #000000; stroke-width: 0.8"/>
      </g>
     </g>
     <g id="text_3">
      <!-- $\mathdefault{1980}$ -->
      <g transform="translate(293.282999 371.381625)scale(0.15 -0.15)">
       <defs>
        <path id="CMR17-38" d="M 1741 2264 
C 2144 2467 2554 2773 2554 3263 
C 2554 3841 1990 4179 1472 4179 
C 890 4179 378 3759 378 3180 
C 378 3021 416 2747 666 2505 
C 730 2442 998 2251 1171 2130 
C 883 1983 211 1634 211 934 
C 211 279 838 -128 1459 -128 
C 2144 -128 2720 362 2720 1010 
C 2720 1590 2330 1857 2074 2029 
L 1741 2264 
z
M 902 2822 
C 851 2854 595 3051 595 3351 
C 595 3739 998 4032 1459 4032 
C 1965 4032 2336 3676 2336 3262 
C 2336 2669 1670 2331 1638 2331 
C 1632 2331 1626 2331 1574 2370 
L 902 2822 
z
M 2080 1519 
C 2176 1449 2483 1240 2483 851 
C 2483 381 2010 25 1472 25 
C 890 25 448 438 448 940 
C 448 1443 838 1862 1280 2060 
L 2080 1519 
z
" transform="scale(0.015625)"/>
       </defs>
       <use xlink:href="#CMR17-31" transform="scale(0.996264)"/>
       <use xlink:href="#CMR17-39" transform="translate(45.690477 0)scale(0.996264)"/>
       <use xlink:href="#CMR17-38" transform="translate(91.380954 0)scale(0.996264)"/>
       <use xlink:href="#CMR17-30" transform="translate(137.071431 0)scale(0.996264)"/>
      </g>
     </g>
    </g>
    <g id="xtick_4">
     <g id="line2d_4">
      <g>
       <use xlink:href="#mf56f95f9bf" x="397.352936" y="354.0039" style="stroke: #000000; stroke-width: 0.8"/>
      </g>
     </g>
     <g id="text_4">
      <!-- $\mathdefault{1990}$ -->
      <g transform="translate(382.72046 371.381625)scale(0.15 -0.15)">
       <use xlink:href="#CMR17-31" transform="scale(0.996264)"/>
       <use xlink:href="#CMR17-39" transform="translate(45.690477 0)scale(0.996264)"/>
       <use xlink:href="#CMR17-39" transform="translate(91.380954 0)scale(0.996264)"/>
       <use xlink:href="#CMR17-30" transform="translate(137.071431 0)scale(0.996264)"/>
      </g>
     </g>
    </g>
    <g id="xtick_5">
     <g id="line2d_5">
      <g>
       <use xlink:href="#mf56f95f9bf" x="486.790398" y="354.0039" style="stroke: #000000; stroke-width: 0.8"/>
      </g>
     </g>
     <g id="text_5">
      <!-- $\mathdefault{2000}$ -->
      <g transform="translate(472.157922 371.381625)scale(0.15 -0.15)">
       <defs>
        <path id="CMR17-32" d="M 2669 989 
L 2554 989 
C 2490 536 2438 459 2413 420 
C 2381 369 1920 369 1830 369 
L 602 369 
C 832 619 1280 1072 1824 1597 
C 2214 1967 2669 2402 2669 3035 
C 2669 3790 2067 4224 1395 4224 
C 691 4224 262 3604 262 3030 
C 262 2780 448 2748 525 2748 
C 589 2748 781 2787 781 3010 
C 781 3207 614 3264 525 3264 
C 486 3264 448 3258 422 3245 
C 544 3790 915 4058 1306 4058 
C 1862 4058 2227 3617 2227 3035 
C 2227 2479 1901 2000 1536 1584 
L 262 146 
L 262 0 
L 2515 0 
L 2669 989 
z
" transform="scale(0.015625)"/>
       </defs>
       <use xlink:href="#CMR17-32" transform="scale(0.996264)"/>
       <use xlink:href="#CMR17-30" transform="translate(45.690477 0)scale(0.996264)"/>
       <use xlink:href="#CMR17-30" transform="translate(91.380954 0)scale(0.996264)"/>
       <use xlink:href="#CMR17-30" transform="translate(137.071431 0)scale(0.996264)"/>
      </g>
     </g>
    </g>
    <g id="xtick_6">
     <g id="line2d_6">
      <g>
       <use xlink:href="#mf56f95f9bf" x="576.227859" y="354.0039" style="stroke: #000000; stroke-width: 0.8"/>
      </g>
     </g>
     <g id="text_6">
      <!-- $\mathdefault{2010}$ -->
      <g transform="translate(561.595383 371.381625)scale(0.15 -0.15)">
       <use xlink:href="#CMR17-32" transform="scale(0.996264)"/>
       <use xlink:href="#CMR17-30" transform="translate(45.690477 0)scale(0.996264)"/>
       <use xlink:href="#CMR17-31" transform="translate(91.380954 0)scale(0.996264)"/>
       <use xlink:href="#CMR17-30" transform="translate(137.071431 0)scale(0.996264)"/>
      </g>
     </g>
    </g>
    <g id="xtick_7">
     <g id="line2d_7">
      <g>
       <use xlink:href="#mf56f95f9bf" x="665.66532" y="354.0039" style="stroke: #000000; stroke-width: 0.8"/>
      </g>
     </g>
     <g id="text_7">
      <!-- $\mathdefault{2020}$ -->
      <g transform="translate(651.032845 371.381625)scale(0.15 -0.15)">
       <use xlink:href="#CMR17-32" transform="scale(0.996264)"/>
       <use xlink:href="#CMR17-30" transform="translate(45.690477 0)scale(0.996264)"/>
       <use xlink:href="#CMR17-32" transform="translate(91.380954 0)scale(0.996264)"/>
       <use xlink:href="#CMR17-30" transform="translate(137.071431 0)scale(0.996264)"/>
      </g>
     </g>
    </g>
    <g id="text_8">
     <!-- year -->
     <g transform="translate(367.222592 392.124366)scale(0.2 -0.2)">
      <defs>
       <path id="CMR17-79" d="M 2496 2197 
C 2656 2586 2944 2586 3034 2586 
L 3034 2752 
C 2912 2752 2752 2752 2630 2752 
C 2496 2752 2285 2752 2157 2758 
L 2157 2592 
C 2400 2573 2406 2394 2406 2343 
C 2406 2280 2394 2248 2362 2171 
L 1664 449 
L 902 2306 
C 870 2382 870 2426 870 2433 
C 870 2573 1018 2586 1171 2586 
L 1171 2758 
C 1018 2752 742 2752 582 2752 
C 410 2752 205 2752 64 2758 
L 64 2586 
C 410 2586 448 2554 531 2350 
L 1485 15 
C 1197 -738 1030 -1178 627 -1178 
C 557 -1178 397 -1159 282 -1044 
C 429 -1031 493 -942 493 -833 
C 493 -725 416 -629 288 -629 
C 147 -629 77 -725 77 -840 
C 77 -1095 339 -1280 627 -1280 
C 998 -1280 1229 -922 1357 -604 
L 2496 2197 
z
" transform="scale(0.015625)"/>
       <path id="CMR17-65" d="M 2438 1472 
C 2464 1498 2464 1511 2464 1576 
C 2464 2238 2118 2816 1389 2816 
C 710 2816 173 2169 173 1383 
C 173 551 781 -64 1459 -64 
C 2176 -64 2458 607 2458 740 
C 2458 784 2419 784 2406 784 
C 2362 784 2355 771 2330 696 
C 2189 265 1837 51 1504 51 
C 1229 51 954 203 781 480 
C 582 803 582 1176 582 1472 
L 2438 1472 
z
M 589 1568 
C 634 2505 1126 2714 1382 2714 
C 1818 2714 2112 2297 2118 1568 
L 589 1568 
z
" transform="scale(0.015625)"/>
       <path id="CMR17-61" d="M 2304 1653 
C 2304 2072 2304 2294 2035 2543 
C 1798 2752 1523 2816 1306 2816 
C 800 2816 435 2407 435 1971 
C 435 1728 627 1728 666 1728 
C 749 1728 896 1778 896 1954 
C 896 2112 774 2181 666 2181 
C 640 2181 608 2174 589 2168 
C 723 2592 1069 2714 1293 2714 
C 1613 2714 1965 2429 1965 1885 
L 1965 1600 
C 1587 1600 1133 1549 774 1357 
C 371 1133 256 813 256 570 
C 256 77 832 -64 1171 -64 
C 1523 -64 1850 139 1990 511 
C 2003 233 2182 -18 2464 -18 
C 2598 -18 2938 70 2938 567 
L 2938 920 
L 2822 920 
L 2822 562 
C 2822 178 2650 128 2566 128 
C 2304 128 2304 458 2304 738 
L 2304 1653 
z
M 1965 870 
C 1965 317 1568 38 1216 38 
C 896 38 646 275 646 570 
C 646 761 730 1100 1101 1305 
C 1408 1478 1760 1504 1965 1504 
L 1965 870 
z
" transform="scale(0.015625)"/>
       <path id="CMR17-72" d="M 960 1497 
C 960 2112 1222 2688 1702 2688 
C 1747 2688 1792 2682 1837 2662 
C 1837 2662 1696 2617 1696 2452 
C 1696 2298 1818 2234 1914 2234 
C 1990 2234 2131 2279 2131 2458 
C 2131 2663 1926 2790 1709 2790 
C 1222 2790 1011 2317 947 2093 
L 941 2093 
L 941 2790 
L 198 2720 
L 198 2554 
C 576 2554 634 2515 634 2208 
L 634 428 
C 634 184 608 153 198 153 
L 198 -13 
C 352 0 646 0 813 0 
C 998 0 1325 0 1498 -13 
L 1498 153 
C 1037 153 960 153 960 440 
L 960 1497 
z
" transform="scale(0.015625)"/>
      </defs>
      <use xlink:href="#CMR17-79" transform="scale(0.996264)"/>
      <use xlink:href="#CMR17-65" transform="translate(45.690462 0)scale(0.996264)"/>
      <use xlink:href="#CMR17-61" transform="translate(86.176122 0)scale(0.996264)"/>
      <use xlink:href="#CMR17-72" transform="translate(131.866599 0)scale(0.996264)"/>
     </g>
    </g>
   </g>
   <g id="matplotlib.axis_2">
    <g id="ytick_1">
     <g id="line2d_8">
      <defs>
       <path id="mefb8a517b5" d="M 0 0 
L -3.5 0 
" style="stroke: #000000; stroke-width: 0.8"/>
      </defs>
      <g>
       <use xlink:href="#mefb8a517b5" x="83.874634" y="340.948811" style="stroke: #000000; stroke-width: 0.8"/>
      </g>
     </g>
     <g id="text_9">
      <!-- $\mathdefault{0.00075}$ -->
      <g transform="translate(28.91263 346.137673)scale(0.15 -0.15)">
       <defs>
        <path id="CMMI12-3a" d="M 1178 307 
C 1178 492 1024 619 870 619 
C 685 619 557 466 557 313 
C 557 128 710 0 864 0 
C 1050 0 1178 153 1178 307 
z
" transform="scale(0.015625)"/>
        <path id="CMR17-35" d="M 730 3692 
C 794 3666 1056 3584 1325 3584 
C 1920 3584 2246 3911 2432 4100 
C 2432 4157 2432 4192 2394 4192 
C 2387 4192 2374 4192 2323 4163 
C 2099 4058 1837 3973 1517 3973 
C 1325 3973 1037 3999 723 4139 
C 653 4171 640 4171 634 4171 
C 602 4171 595 4164 595 4037 
L 595 2203 
C 595 2089 595 2057 659 2057 
C 691 2057 704 2070 736 2114 
C 941 2401 1222 2522 1542 2522 
C 1766 2522 2246 2382 2246 1289 
C 2246 1085 2246 715 2054 421 
C 1894 159 1645 25 1370 25 
C 947 25 518 320 403 814 
C 429 807 480 795 506 795 
C 589 795 749 840 749 1038 
C 749 1210 627 1280 506 1280 
C 358 1280 262 1190 262 1011 
C 262 454 704 -128 1382 -128 
C 2042 -128 2669 440 2669 1264 
C 2669 2030 2170 2624 1549 2624 
C 1222 2624 947 2503 730 2274 
L 730 3692 
z
" transform="scale(0.015625)"/>
       </defs>
       <use xlink:href="#CMR17-30" transform="scale(0.996264)"/>
       <use xlink:href="#CMMI12-3a" transform="translate(45.690477 0)scale(0.996264)"/>
       <use xlink:href="#CMR17-30" transform="translate(72.787654 0)scale(0.996264)"/>
       <use xlink:href="#CMR17-30" transform="translate(118.478131 0)scale(0.996264)"/>
       <use xlink:href="#CMR17-30" transform="translate(164.168608 0)scale(0.996264)"/>
       <use xlink:href="#CMR17-37" transform="translate(209.859086 0)scale(0.996264)"/>
       <use xlink:href="#CMR17-35" transform="translate(255.549563 0)scale(0.996264)"/>
      </g>
     </g>
    </g>
    <g id="ytick_2">
     <g id="line2d_9">
      <g>
       <use xlink:href="#mefb8a517b5" x="83.874634" y="298.284693" style="stroke: #000000; stroke-width: 0.8"/>
      </g>
     </g>
     <g id="text_10">
      <!-- $\mathdefault{0.00100}$ -->
      <g transform="translate(28.91263 303.473555)scale(0.15 -0.15)">
       <use xlink:href="#CMR17-30" transform="scale(0.996264)"/>
       <use xlink:href="#CMMI12-3a" transform="translate(45.690477 0)scale(0.996264)"/>
       <use xlink:href="#CMR17-30" transform="translate(72.787654 0)scale(0.996264)"/>
       <use xlink:href="#CMR17-30" transform="translate(118.478131 0)scale(0.996264)"/>
       <use xlink:href="#CMR17-31" transform="translate(164.168608 0)scale(0.996264)"/>
       <use xlink:href="#CMR17-30" transform="translate(209.859086 0)scale(0.996264)"/>
       <use xlink:href="#CMR17-30" transform="translate(255.549563 0)scale(0.996264)"/>
      </g>
     </g>
    </g>
    <g id="ytick_3">
     <g id="line2d_10">
      <g>
       <use xlink:href="#mefb8a517b5" x="83.874634" y="255.620575" style="stroke: #000000; stroke-width: 0.8"/>
      </g>
     </g>
     <g id="text_11">
      <!-- $\mathdefault{0.00125}$ -->
      <g transform="translate(28.91263 260.809438)scale(0.15 -0.15)">
       <use xlink:href="#CMR17-30" transform="scale(0.996264)"/>
       <use xlink:href="#CMMI12-3a" transform="translate(45.690477 0)scale(0.996264)"/>
       <use xlink:href="#CMR17-30" transform="translate(72.787654 0)scale(0.996264)"/>
       <use xlink:href="#CMR17-30" transform="translate(118.478131 0)scale(0.996264)"/>
       <use xlink:href="#CMR17-31" transform="translate(164.168608 0)scale(0.996264)"/>
       <use xlink:href="#CMR17-32" transform="translate(209.859086 0)scale(0.996264)"/>
       <use xlink:href="#CMR17-35" transform="translate(255.549563 0)scale(0.996264)"/>
      </g>
     </g>
    </g>
    <g id="ytick_4">
     <g id="line2d_11">
      <g>
       <use xlink:href="#mefb8a517b5" x="83.874634" y="212.956457" style="stroke: #000000; stroke-width: 0.8"/>
      </g>
     </g>
     <g id="text_12">
      <!-- $\mathdefault{0.00150}$ -->
      <g transform="translate(28.91263 218.14532)scale(0.15 -0.15)">
       <use xlink:href="#CMR17-30" transform="scale(0.996264)"/>
       <use xlink:href="#CMMI12-3a" transform="translate(45.690477 0)scale(0.996264)"/>
       <use xlink:href="#CMR17-30" transform="translate(72.787654 0)scale(0.996264)"/>
       <use xlink:href="#CMR17-30" transform="translate(118.478131 0)scale(0.996264)"/>
       <use xlink:href="#CMR17-31" transform="translate(164.168608 0)scale(0.996264)"/>
       <use xlink:href="#CMR17-35" transform="translate(209.859086 0)scale(0.996264)"/>
       <use xlink:href="#CMR17-30" transform="translate(255.549563 0)scale(0.996264)"/>
      </g>
     </g>
    </g>
    <g id="ytick_5">
     <g id="line2d_12">
      <g>
       <use xlink:href="#mefb8a517b5" x="83.874634" y="170.29234" style="stroke: #000000; stroke-width: 0.8"/>
      </g>
     </g>
     <g id="text_13">
      <!-- $\mathdefault{0.00175}$ -->
      <g transform="translate(28.91263 175.481202)scale(0.15 -0.15)">
       <use xlink:href="#CMR17-30" transform="scale(0.996264)"/>
       <use xlink:href="#CMMI12-3a" transform="translate(45.690477 0)scale(0.996264)"/>
       <use xlink:href="#CMR17-30" transform="translate(72.787654 0)scale(0.996264)"/>
       <use xlink:href="#CMR17-30" transform="translate(118.478131 0)scale(0.996264)"/>
       <use xlink:href="#CMR17-31" transform="translate(164.168608 0)scale(0.996264)"/>
       <use xlink:href="#CMR17-37" transform="translate(209.859086 0)scale(0.996264)"/>
       <use xlink:href="#CMR17-35" transform="translate(255.549563 0)scale(0.996264)"/>
      </g>
     </g>
    </g>
    <g id="ytick_6">
     <g id="line2d_13">
      <g>
       <use xlink:href="#mefb8a517b5" x="83.874634" y="127.628222" style="stroke: #000000; stroke-width: 0.8"/>
      </g>
     </g>
     <g id="text_14">
      <!-- $\mathdefault{0.00200}$ -->
      <g transform="translate(28.91263 132.817084)scale(0.15 -0.15)">
       <use xlink:href="#CMR17-30" transform="scale(0.996264)"/>
       <use xlink:href="#CMMI12-3a" transform="translate(45.690477 0)scale(0.996264)"/>
       <use xlink:href="#CMR17-30" transform="translate(72.787654 0)scale(0.996264)"/>
       <use xlink:href="#CMR17-30" transform="translate(118.478131 0)scale(0.996264)"/>
       <use xlink:href="#CMR17-32" transform="translate(164.168608 0)scale(0.996264)"/>
       <use xlink:href="#CMR17-30" transform="translate(209.859086 0)scale(0.996264)"/>
       <use xlink:href="#CMR17-30" transform="translate(255.549563 0)scale(0.996264)"/>
      </g>
     </g>
    </g>
    <g id="ytick_7">
     <g id="line2d_14">
      <g>
       <use xlink:href="#mefb8a517b5" x="83.874634" y="84.964104" style="stroke: #000000; stroke-width: 0.8"/>
      </g>
     </g>
     <g id="text_15">
      <!-- $\mathdefault{0.00225}$ -->
      <g transform="translate(28.91263 90.152967)scale(0.15 -0.15)">
       <use xlink:href="#CMR17-30" transform="scale(0.996264)"/>
       <use xlink:href="#CMMI12-3a" transform="translate(45.690477 0)scale(0.996264)"/>
       <use xlink:href="#CMR17-30" transform="translate(72.787654 0)scale(0.996264)"/>
       <use xlink:href="#CMR17-30" transform="translate(118.478131 0)scale(0.996264)"/>
       <use xlink:href="#CMR17-32" transform="translate(164.168608 0)scale(0.996264)"/>
       <use xlink:href="#CMR17-32" transform="translate(209.859086 0)scale(0.996264)"/>
       <use xlink:href="#CMR17-35" transform="translate(255.549563 0)scale(0.996264)"/>
      </g>
     </g>
    </g>
    <g id="ytick_8">
     <g id="line2d_15">
      <g>
       <use xlink:href="#mefb8a517b5" x="83.874634" y="42.299987" style="stroke: #000000; stroke-width: 0.8"/>
      </g>
     </g>
     <g id="text_16">
      <!-- $\mathdefault{0.00250}$ -->
      <g transform="translate(28.91263 47.488849)scale(0.15 -0.15)">
       <use xlink:href="#CMR17-30" transform="scale(0.996264)"/>
       <use xlink:href="#CMMI12-3a" transform="translate(45.690477 0)scale(0.996264)"/>
       <use xlink:href="#CMR17-30" transform="translate(72.787654 0)scale(0.996264)"/>
       <use xlink:href="#CMR17-30" transform="translate(118.478131 0)scale(0.996264)"/>
       <use xlink:href="#CMR17-32" transform="translate(164.168608 0)scale(0.996264)"/>
       <use xlink:href="#CMR17-35" transform="translate(209.859086 0)scale(0.996264)"/>
       <use xlink:href="#CMR17-30" transform="translate(255.549563 0)scale(0.996264)"/>
      </g>
     </g>
    </g>
    <g id="text_17">
     <!-- mortality rate -->
     <g transform="translate(21.036997 247.888958)rotate(-90)scale(0.2 -0.2)">
      <defs>
       <path id="CMR17-6d" d="M 4326 1933 
C 4326 2252 4269 2790 3507 2790 
C 3072 2790 2771 2496 2656 2151 
L 2650 2151 
C 2573 2676 2195 2790 1837 2790 
C 1331 2790 1069 2400 973 2144 
L 966 2144 
L 966 2790 
L 211 2720 
L 211 2554 
C 589 2554 646 2515 646 2208 
L 646 428 
C 646 184 621 153 211 153 
L 211 -13 
C 365 0 646 0 813 0 
C 979 0 1267 0 1421 -13 
L 1421 153 
C 1011 153 986 178 986 428 
L 986 1658 
C 986 2247 1344 2688 1792 2688 
C 2266 2688 2317 2266 2317 1958 
L 2317 428 
C 2317 184 2291 153 1882 153 
L 1882 -13 
C 2035 0 2317 0 2483 0 
C 2650 0 2938 0 3091 -13 
L 3091 153 
C 2682 153 2656 178 2656 428 
L 2656 1658 
C 2656 2247 3014 2688 3462 2688 
C 3936 2688 3987 2266 3987 1958 
L 3987 428 
C 3987 184 3962 153 3552 153 
L 3552 -13 
C 3706 0 3987 0 4154 0 
C 4320 0 4608 0 4762 -13 
L 4762 153 
C 4352 153 4326 178 4326 428 
L 4326 1933 
z
" transform="scale(0.015625)"/>
       <path id="CMR17-6f" d="M 2758 1356 
C 2758 2176 2163 2816 1466 2816 
C 768 2816 173 2176 173 1356 
C 173 551 768 -64 1466 -64 
C 2163 -64 2758 551 2758 1356 
z
M 1466 51 
C 1165 51 909 230 762 480 
C 602 767 582 1126 582 1408 
C 582 1677 595 2010 762 2298 
C 890 2509 1139 2714 1466 2714 
C 1754 2714 1997 2554 2150 2330 
C 2349 2029 2349 1607 2349 1408 
C 2349 1158 2336 775 2163 467 
C 1984 173 1709 51 1466 51 
z
" transform="scale(0.015625)"/>
       <path id="CMR17-74" d="M 966 2560 
L 1862 2560 
L 1862 2725 
L 966 2725 
L 966 3904 
L 851 3904 
C 838 3245 614 2668 70 2668 
L 70 2560 
L 627 2560 
L 627 771 
C 627 650 627 -64 1370 -64 
C 1747 -64 1965 306 1965 777 
L 1965 1140 
L 1850 1140 
L 1850 783 
C 1850 344 1677 51 1408 51 
C 1222 51 966 178 966 758 
L 966 2560 
z
" transform="scale(0.015625)"/>
       <path id="CMR17-6c" d="M 979 4396 
L 218 4326 
L 218 4160 
C 595 4160 653 4122 653 3817 
L 653 426 
C 653 184 627 153 218 153 
L 218 -13 
C 371 0 653 0 813 0 
C 979 0 1261 0 1414 -13 
L 1414 153 
C 1005 153 979 178 979 426 
L 979 4396 
z
" transform="scale(0.015625)"/>
       <path id="CMR17-69" d="M 992 3909 
C 992 4049 877 4170 730 4170 
C 589 4170 467 4056 467 3909 
C 467 3769 582 3648 730 3648 
C 870 3648 992 3763 992 3909 
z
M 243 2706 
L 243 2541 
C 602 2541 653 2502 653 2197 
L 653 427 
C 653 184 627 153 218 153 
L 218 -13 
C 371 0 646 0 806 0 
C 960 0 1222 0 1370 -13 
L 1370 153 
C 992 153 979 191 979 420 
L 979 2776 
L 243 2706 
z
" transform="scale(0.015625)"/>
      </defs>
      <use xlink:href="#CMR17-6d" transform="scale(0.996264)"/>
      <use xlink:href="#CMR17-6f" transform="translate(76.91959 0)scale(0.996264)"/>
      <use xlink:href="#CMR17-72" transform="translate(122.610067 0)scale(0.996264)"/>
      <use xlink:href="#CMR17-74" transform="translate(157.890835 0)scale(0.996264)"/>
      <use xlink:href="#CMR17-61" transform="translate(193.171603 0)scale(0.996264)"/>
      <use xlink:href="#CMR17-6c" transform="translate(238.86208 0)scale(0.996264)"/>
      <use xlink:href="#CMR17-69" transform="translate(263.733138 0)scale(0.996264)"/>
      <use xlink:href="#CMR17-74" transform="translate(288.604197 0)scale(0.996264)"/>
      <use xlink:href="#CMR17-79" transform="translate(321.282511 0)scale(0.996264)"/>
      <use xlink:href="#CMR17-72" transform="translate(399.651393 0)scale(0.996264)"/>
      <use xlink:href="#CMR17-61" transform="translate(434.932161 0)scale(0.996264)"/>
      <use xlink:href="#CMR17-74" transform="translate(480.622638 0)scale(0.996264)"/>
      <use xlink:href="#CMR17-65" transform="translate(515.903405 0)scale(0.996264)"/>
     </g>
    </g>
   </g>
   <g id="line2d_16">
    <path d="M 477.846651 354.0039 
L 477.846651 30.496254 
" clip-path="url(#p425959189e)" style="fill: none; stroke-dasharray: 7.4,3.2; stroke-dashoffset: 0; stroke: #000000; stroke-width: 2"/>
   </g>
   <g id="patch_3">
    <path d="M 83.874634 354.0039 
L 83.874634 30.496254 
" style="fill: none; stroke: #000000; stroke-width: 0.8; stroke-linejoin: miter; stroke-linecap: square"/>
   </g>
   <g id="patch_4">
    <path d="M 684 354.0039 
L 684 30.496254 
" style="fill: none; stroke: #000000; stroke-width: 0.8; stroke-linejoin: miter; stroke-linecap: square"/>
   </g>
   <g id="patch_5">
    <path d="M 83.874634 354.0039 
L 684 354.0039 
" style="fill: none; stroke: #000000; stroke-width: 0.8; stroke-linejoin: miter; stroke-linecap: square"/>
   </g>
   <g id="patch_6">
    <path d="M 83.874634 30.496254 
L 684 30.496254 
" style="fill: none; stroke: #000000; stroke-width: 0.8; stroke-linejoin: miter; stroke-linecap: square"/>
   </g>
   <g id="text_18">
    <!-- Lee- -Carter model long term forecasts -->
    <g transform="translate(196.256925 24.496254)scale(0.25 -0.25)">
     <defs>
      <path id="CMR17-4c" d="M 3469 1615 
L 3354 1615 
C 3302 983 3219 166 2125 166 
L 1530 166 
C 1274 166 1261 197 1261 414 
L 1261 3898 
C 1261 4129 1274 4192 1760 4192 
L 1901 4192 
L 1901 4352 
C 1638 4352 1331 4352 1069 4352 
C 870 4352 512 4352 326 4352 
L 326 4192 
C 768 4192 838 4192 838 3905 
L 838 452 
C 838 166 768 166 326 166 
L 326 0 
L 3315 0 
L 3469 1615 
z
" transform="scale(0.015625)"/>
      <path id="CMR17-7b" d="M 2970 1664 
L 2970 1766 
L -38 1766 
L -38 1664 
L 2970 1664 
z
" transform="scale(0.015625)"/>
      <path id="CMR17-43" d="M 3974 4289 
C 3974 4403 3968 4410 3930 4410 
C 3904 4410 3898 4403 3853 4327 
L 3571 3792 
C 3258 4187 2874 4416 2381 4416 
C 1286 4416 294 3456 294 2148 
C 294 826 1286 -128 2387 -128 
C 3366 -128 3974 730 3974 1461 
C 3974 1524 3974 1550 3917 1550 
C 3866 1550 3866 1531 3859 1474 
C 3808 585 3168 38 2477 38 
C 1824 38 781 495 781 2147 
C 781 3805 1843 4250 2464 4250 
C 3187 4250 3712 3628 3834 2745 
C 3846 2668 3846 2655 3904 2655 
C 3974 2655 3974 2668 3974 2783 
L 3974 4289 
z
" transform="scale(0.015625)"/>
      <path id="CMR17-64" d="M 1869 4326 
L 1869 4160 
C 2246 4160 2304 4122 2304 3820 
L 2304 2345 
C 2278 2377 2016 2790 1498 2790 
C 845 2790 211 2208 211 1364 
C 211 525 806 -64 1434 -64 
C 1978 -64 2259 337 2291 380 
L 2291 -63 
L 3066 -63 
L 3066 128 
C 2688 128 2630 166 2630 473 
L 2630 4396 
L 1869 4326 
z
M 2291 755 
C 2291 563 2176 390 2029 262 
C 1811 70 1594 38 1472 38 
C 1286 38 621 134 621 1356 
C 621 2612 1363 2688 1530 2688 
C 1824 2688 2061 2522 2208 2291 
C 2291 2157 2291 2138 2291 2023 
L 2291 755 
z
" transform="scale(0.015625)"/>
      <path id="CMR17-6e" d="M 2656 1933 
C 2656 2259 2592 2790 1837 2790 
C 1331 2790 1069 2400 973 2144 
L 966 2144 
L 966 2790 
L 211 2720 
L 211 2554 
C 589 2554 646 2515 646 2208 
L 646 428 
C 646 184 621 153 211 153 
L 211 -13 
C 365 0 646 0 813 0 
C 979 0 1267 0 1421 -13 
L 1421 153 
C 1011 153 986 178 986 428 
L 986 1658 
C 986 2247 1344 2688 1792 2688 
C 2266 2688 2317 2266 2317 1958 
L 2317 428 
C 2317 184 2291 153 1882 153 
L 1882 -13 
C 2035 0 2317 0 2483 0 
C 2650 0 2938 0 3091 -13 
L 3091 153 
C 2682 153 2656 178 2656 428 
L 2656 1933 
z
" transform="scale(0.015625)"/>
      <path id="CMR17-67" d="M 710 1164 
C 832 1068 1043 960 1299 960 
C 1805 960 2240 1357 2240 1888 
C 2240 2054 2189 2310 1997 2509 
C 2176 2692 2438 2752 2586 2752 
C 2611 2752 2650 2752 2682 2734 
C 2656 2728 2598 2703 2598 2605 
C 2598 2527 2656 2471 2739 2471 
C 2835 2471 2886 2533 2886 2614 
C 2886 2731 2790 2854 2586 2854 
C 2330 2854 2106 2738 1926 2580 
C 1734 2753 1504 2816 1299 2816 
C 794 2816 358 2419 358 1888 
C 358 1522 570 1292 634 1228 
C 442 1004 442 743 442 711 
C 442 545 506 302 723 168 
C 390 85 128 -169 128 -486 
C 128 -943 736 -1280 1466 -1280 
C 2170 -1280 2803 -956 2803 -479 
C 2803 384 1856 384 1363 384 
C 1216 384 954 384 922 391 
C 723 423 589 602 589 826 
C 589 883 589 1024 710 1164 
z
M 1299 1068 
C 736 1068 736 1760 736 1889 
C 736 2016 736 2708 1299 2708 
C 1862 2708 1862 2016 1862 1889 
C 1862 1760 1862 1068 1299 1068 
z
M 1466 -1171 
C 826 -1171 384 -835 384 -486 
C 384 -289 493 -105 634 -4 
C 794 104 858 104 1293 104 
C 1818 104 2547 104 2547 -486 
C 2547 -835 2106 -1171 1466 -1171 
z
" transform="scale(0.015625)"/>
      <path id="CMR17-66" d="M 979 2560 
L 1709 2560 
L 1709 2725 
L 966 2725 
L 966 3494 
C 966 4022 1235 4352 1510 4352 
C 1594 4352 1690 4327 1754 4282 
C 1702 4269 1568 4225 1568 4067 
C 1568 3901 1696 3850 1786 3850 
C 1875 3850 2003 3901 2003 4067 
C 2003 4308 1773 4454 1517 4454 
C 1152 4454 653 4156 653 3481 
L 653 2725 
L 141 2725 
L 141 2560 
L 653 2560 
L 653 427 
C 653 184 627 153 218 153 
L 218 -13 
C 371 0 666 0 832 0 
C 1018 0 1344 0 1517 -13 
L 1517 153 
C 1056 153 979 153 979 439 
L 979 2560 
z
" transform="scale(0.015625)"/>
      <path id="CMR17-63" d="M 2234 2240 
C 2112 2240 1933 2240 1933 2017 
C 1933 1838 2080 1787 2163 1787 
C 2208 1787 2394 1807 2394 2024 
C 2394 2467 1958 2803 1466 2803 
C 787 2803 211 2178 211 1363 
C 211 516 813 -64 1466 -64 
C 2259 -64 2458 677 2458 748 
C 2458 774 2451 793 2406 793 
C 2362 793 2355 787 2330 703 
C 2163 180 1798 51 1523 51 
C 1114 51 621 427 621 1369 
C 621 2338 1094 2688 1472 2688 
C 1722 2688 2093 2573 2234 2240 
z
" transform="scale(0.015625)"/>
      <path id="CMR17-73" d="M 1978 2697 
C 1978 2813 1971 2819 1933 2819 
C 1907 2819 1901 2813 1824 2717 
C 1805 2691 1747 2626 1728 2601 
C 1523 2819 1235 2819 1126 2819 
C 416 2819 160 2447 160 2076 
C 160 1498 813 1365 998 1325 
C 1402 1243 1542 1217 1677 1101 
C 1760 1025 1901 884 1901 654 
C 1901 384 1747 38 1158 38 
C 602 38 403 460 288 1021 
C 269 1110 269 1117 218 1117 
C 166 1117 160 1110 160 983 
L 160 63 
C 160 -51 166 -58 205 -58 
C 237 -58 243 -51 275 0 
C 314 57 410 211 448 276 
C 576 103 800 -64 1158 -64 
C 1792 -64 2131 283 2131 784 
C 2131 1112 1958 1285 1875 1362 
C 1683 1561 1459 1606 1190 1657 
C 838 1735 390 1825 390 2217 
C 390 2383 480 2737 1126 2737 
C 1811 2737 1850 2094 1862 1888 
C 1869 1856 1901 1849 1920 1849 
C 1978 1849 1978 1869 1978 1978 
L 1978 2697 
z
" transform="scale(0.015625)"/>
     </defs>
     <use xlink:href="#CMR17-4c" transform="scale(0.996264)"/>
     <use xlink:href="#CMR17-65" transform="translate(57.381408 0)scale(0.996264)"/>
     <use xlink:href="#CMR17-65" transform="translate(97.867068 0)scale(0.996264)"/>
     <use xlink:href="#CMR17-7b" transform="translate(138.352729 0)scale(0.996264)"/>
     <use xlink:href="#CMR17-43" transform="translate(184.043206 0)scale(0.996264)"/>
     <use xlink:href="#CMR17-61" transform="translate(250.553086 0)scale(0.996264)"/>
     <use xlink:href="#CMR17-72" transform="translate(296.243564 0)scale(0.996264)"/>
     <use xlink:href="#CMR17-74" transform="translate(331.524331 0)scale(0.996264)"/>
     <use xlink:href="#CMR17-65" transform="translate(366.805099 0)scale(0.996264)"/>
     <use xlink:href="#CMR17-72" transform="translate(407.29076 0)scale(0.996264)"/>
     <use xlink:href="#CMR17-6d" transform="translate(472.647494 0)scale(0.996264)"/>
     <use xlink:href="#CMR17-6f" transform="translate(549.567084 0)scale(0.996264)"/>
     <use xlink:href="#CMR17-64" transform="translate(597.859999 0)scale(0.996264)"/>
     <use xlink:href="#CMR17-65" transform="translate(648.755369 0)scale(0.996264)"/>
     <use xlink:href="#CMR17-6c" transform="translate(689.24103 0)scale(0.996264)"/>
     <use xlink:href="#CMR17-6c" transform="translate(744.188055 0)scale(0.996264)"/>
     <use xlink:href="#CMR17-6f" transform="translate(769.059113 0)scale(0.996264)"/>
     <use xlink:href="#CMR17-6e" transform="translate(814.74959 0)scale(0.996264)"/>
     <use xlink:href="#CMR17-67" transform="translate(865.64496 0)scale(0.996264)"/>
     <use xlink:href="#CMR17-74" transform="translate(941.411403 0)scale(0.996264)"/>
     <use xlink:href="#CMR17-65" transform="translate(976.692171 0)scale(0.996264)"/>
     <use xlink:href="#CMR17-72" transform="translate(1017.177832 0)scale(0.996264)"/>
     <use xlink:href="#CMR17-6d" transform="translate(1052.458599 0)scale(0.996264)"/>
     <use xlink:href="#CMR17-66" transform="translate(1159.454156 0)scale(0.996264)"/>
     <use xlink:href="#CMR17-6f" transform="translate(1186.927668 0)scale(0.996264)"/>
     <use xlink:href="#CMR17-72" transform="translate(1232.618145 0)scale(0.996264)"/>
     <use xlink:href="#CMR17-65" transform="translate(1267.898913 0)scale(0.996264)"/>
     <use xlink:href="#CMR17-63" transform="translate(1308.384573 0)scale(0.996264)"/>
     <use xlink:href="#CMR17-61" transform="translate(1348.870234 0)scale(0.996264)"/>
     <use xlink:href="#CMR17-73" transform="translate(1394.560711 0)scale(0.996264)"/>
     <use xlink:href="#CMR17-74" transform="translate(1430.362049 0)scale(0.996264)"/>
     <use xlink:href="#CMR17-73" transform="translate(1465.642816 0)scale(0.996264)"/>
    </g>
   </g>
   <g id="legend_1">
    <g id="patch_7">
     <path d="M 520.633925 105.213488 
L 673.5 105.213488 
Q 676.5 105.213488 676.5 102.213488 
L 676.5 40.996254 
Q 676.5 37.996254 673.5 37.996254 
L 520.633925 37.996254 
Q 517.633925 37.996254 517.633925 40.996254 
L 517.633925 102.213488 
Q 517.633925 105.213488 520.633925 105.213488 
z
" style="fill: #ffffff; opacity: 0.8; stroke: #cccccc; stroke-linejoin: miter"/>
    </g>
    <g id="PathCollection_4">
     <g>
      <use xlink:href="#mad12776e33" x="538.633925" y="50.558754" style="fill: #1f77b4; stroke: #1f77b4"/>
     </g>
    </g>
    <g id="text_19">
     <!-- real values -->
     <g transform="translate(565.633925 54.496254)scale(0.15 -0.15)">
      <defs>
       <path id="CMR17-76" d="M 2502 2163 
C 2560 2304 2662 2560 3034 2560 
L 3034 2726 
C 2912 2726 2752 2726 2630 2726 
C 2496 2726 2285 2726 2157 2732 
L 2157 2566 
C 2317 2553 2406 2477 2406 2311 
C 2406 2253 2406 2240 2368 2151 
L 1664 377 
L 902 2286 
C 864 2369 864 2381 864 2407 
C 864 2560 1075 2560 1171 2560 
L 1171 2732 
C 1018 2726 736 2726 576 2726 
C 403 2726 205 2726 64 2732 
L 64 2560 
C 307 2560 442 2560 518 2362 
L 1446 44 
C 1485 -51 1491 -64 1549 -64 
C 1606 -64 1613 -51 1651 44 
L 2502 2163 
z
" transform="scale(0.015625)"/>
       <path id="CMR17-75" d="M 1882 2693 
L 1882 2528 
C 2259 2528 2317 2489 2317 2186 
L 2317 1032 
C 2317 500 2029 38 1555 38 
C 1030 38 986 348 986 678 
L 986 2763 
L 211 2693 
L 211 2528 
C 467 2528 640 2528 646 2274 
L 646 1058 
C 646 633 646 361 813 183 
C 896 101 1056 -64 1517 -64 
C 2061 -64 2272 377 2323 506 
L 2330 506 
L 2330 -63 
L 3091 -63 
L 3091 128 
C 2714 128 2656 166 2656 473 
L 2656 2763 
L 1882 2693 
z
" transform="scale(0.015625)"/>
      </defs>
      <use xlink:href="#CMR17-72" transform="scale(0.996264)"/>
      <use xlink:href="#CMR17-65" transform="translate(35.280768 0)scale(0.996264)"/>
      <use xlink:href="#CMR17-61" transform="translate(75.766428 0)scale(0.996264)"/>
      <use xlink:href="#CMR17-6c" transform="translate(121.456905 0)scale(0.996264)"/>
      <use xlink:href="#CMR17-76" transform="translate(176.40393 0)scale(0.996264)"/>
      <use xlink:href="#CMR17-61" transform="translate(219.492029 0)scale(0.996264)"/>
      <use xlink:href="#CMR17-6c" transform="translate(265.182507 0)scale(0.996264)"/>
      <use xlink:href="#CMR17-75" transform="translate(290.053565 0)scale(0.996264)"/>
      <use xlink:href="#CMR17-65" transform="translate(340.948935 0)scale(0.996264)"/>
      <use xlink:href="#CMR17-73" transform="translate(381.434595 0)scale(0.996264)"/>
     </g>
    </g>
    <g id="PathCollection_5">
     <g>
      <use xlink:href="#m99b4ef9350" x="538.633925" y="71.464498" style="fill: #ff7f0e; stroke: #ff7f0e"/>
     </g>
    </g>
    <g id="text_20">
     <!-- LC prediction -->
     <g transform="translate(565.633925 75.401998)scale(0.15 -0.15)">
      <defs>
       <path id="CMR17-70" d="M 1408 -1063 
C 998 -1063 973 -1037 973 -789 
L 973 402 
C 1158 134 1427 -38 1766 -38 
C 2406 -38 3053 523 3053 1388 
C 3053 2191 2496 2802 1837 2802 
C 1453 2802 1139 2592 960 2338 
L 960 2802 
L 198 2732 
L 198 2567 
C 576 2567 634 2528 634 2223 
L 634 -789 
C 634 -1031 608 -1063 198 -1063 
L 198 -1228 
C 352 -1216 634 -1216 800 -1216 
C 966 -1216 1254 -1216 1408 -1228 
L 1408 -1063 
z
M 973 2012 
C 973 2102 973 2235 1222 2471 
C 1254 2497 1472 2688 1792 2688 
C 2259 2688 2643 2108 2643 1382 
C 2643 656 2234 64 1728 64 
C 1498 64 1248 172 1056 472 
C 973 612 973 650 973 752 
L 973 2012 
z
" transform="scale(0.015625)"/>
      </defs>
      <use xlink:href="#CMR17-4c" transform="scale(0.996264)"/>
      <use xlink:href="#CMR17-43" transform="translate(57.381408 0)scale(0.996264)"/>
      <use xlink:href="#CMR17-70" transform="translate(153.967255 0)scale(0.996264)"/>
      <use xlink:href="#CMR17-72" transform="translate(204.862625 0)scale(0.996264)"/>
      <use xlink:href="#CMR17-65" transform="translate(240.143392 0)scale(0.996264)"/>
      <use xlink:href="#CMR17-64" transform="translate(280.629053 0)scale(0.996264)"/>
      <use xlink:href="#CMR17-69" transform="translate(331.524423 0)scale(0.996264)"/>
      <use xlink:href="#CMR17-63" transform="translate(356.395481 0)scale(0.996264)"/>
      <use xlink:href="#CMR17-74" transform="translate(396.881142 0)scale(0.996264)"/>
      <use xlink:href="#CMR17-69" transform="translate(432.161909 0)scale(0.996264)"/>
      <use xlink:href="#CMR17-6f" transform="translate(457.032968 0)scale(0.996264)"/>
      <use xlink:href="#CMR17-6e" transform="translate(502.723445 0)scale(0.996264)"/>
     </g>
    </g>
    <g id="PathCollection_6">
     <g>
      <use xlink:href="#m10ce68aa14" x="538.633925" y="92.370243" style="fill: #2ca02c; stroke: #2ca02c"/>
     </g>
    </g>
    <g id="text_21">
     <!-- linear prediction -->
     <g transform="translate(565.633925 96.307743)scale(0.15 -0.15)">
      <use xlink:href="#CMR17-6c" transform="scale(0.996264)"/>
      <use xlink:href="#CMR17-69" transform="translate(24.871058 0)scale(0.996264)"/>
      <use xlink:href="#CMR17-6e" transform="translate(49.742117 0)scale(0.996264)"/>
      <use xlink:href="#CMR17-65" transform="translate(100.637487 0)scale(0.996264)"/>
      <use xlink:href="#CMR17-61" transform="translate(141.123147 0)scale(0.996264)"/>
      <use xlink:href="#CMR17-72" transform="translate(186.813624 0)scale(0.996264)"/>
      <use xlink:href="#CMR17-70" transform="translate(252.170358 0)scale(0.996264)"/>
      <use xlink:href="#CMR17-72" transform="translate(303.065728 0)scale(0.996264)"/>
      <use xlink:href="#CMR17-65" transform="translate(338.346496 0)scale(0.996264)"/>
      <use xlink:href="#CMR17-64" transform="translate(378.832157 0)scale(0.996264)"/>
      <use xlink:href="#CMR17-69" transform="translate(429.727526 0)scale(0.996264)"/>
      <use xlink:href="#CMR17-63" transform="translate(454.598585 0)scale(0.996264)"/>
      <use xlink:href="#CMR17-74" transform="translate(495.084245 0)scale(0.996264)"/>
      <use xlink:href="#CMR17-69" transform="translate(530.365013 0)scale(0.996264)"/>
      <use xlink:href="#CMR17-6f" transform="translate(555.236072 0)scale(0.996264)"/>
      <use xlink:href="#CMR17-6e" transform="translate(600.926549 0)scale(0.996264)"/>
     </g>
    </g>
   </g>
  </g>
 </g>
 <defs>
  <clipPath id="p425959189e">
   <rect x="83.874634" y="30.496254" width="600.125366" height="323.507647"/>
  </clipPath>
 </defs>
</svg>
